/* XPM */
static char *cookie1_24[] = {
/* columns rows colors chars-per-pixel */
"32 32 212 2 ",
"   c None",
".  c #5F1613",
"X  c #601613",
"o  c #611713",
"O  c #661C16",
"+  c #671C16",
"@  c #691F17",
"#  c #6A1F17",
"$  c #6B2018",
"%  c #6E2319",
"&  c #6F2319",
"*  c #6F2419",
"=  c #712519",
"-  c #71251A",
";  c #72261A",
":  c #73281B",
">  c #73281C",
",  c #762B1D",
"<  c #772B1D",
"1  c #782C1D",
"2  c #7B2F1F",
"3  c #813422",
"4  c #843722",
"5  c #843823",
"6  c #863923",
"7  c #893B25",
"8  c #8C3E26",
"9  c #8E4127",
"0  c #8F4128",
"q  c #914228",
"w  c #914328",
"e  c #944629",
"r  c #95462A",
"t  c #96472A",
"y  c #92492D",
"u  c #994A2B",
"i  c #9B4C2D",
"p  c #A4532F",
"a  c #A95832",
"s  c #AA5932",
"d  c #AA5933",
"f  c #A95A33",
"g  c #AE5C33",
"h  c #AC5B34",
"j  c #AE5F35",
"k  c #AF5E36",
"l  c #AF5F36",
"z  c #A96B3C",
"x  c #A86C3F",
"c  c #B16036",
"v  c #B66337",
"b  c #B76438",
"n  c #B6673A",
"m  c #B86639",
"M  c #BA6739",
"N  c #B8673A",
"B  c #BA683A",
"V  c #BC6839",
"C  c #BD693A",
"Z  c #BC693B",
"A  c #BC6A3A",
"S  c #BD6B3B",
"D  c #BE6B3A",
"F  c #BF6B3B",
"G  c #BF6C3B",
"H  c #BB6C3D",
"J  c #BE6C3C",
"K  c #BF6C3C",
"L  c #C06D3B",
"P  c #C16E3C",
"I  c #C36F3D",
"U  c #C3703E",
"Y  c #C4703D",
"T  c #C4713E",
"R  c #C5713E",
"E  c #C8733F",
"W  c #B37141",
"Q  c #B77441",
"!  c #BD7742",
"~  c #B97644",
"^  c #B97745",
"/  c #BA7745",
"(  c #BE7843",
")  c #BB7846",
"_  c #BC7844",
"`  c #BC7845",
"'  c #BE7944",
"]  c #BC7846",
"[  c #BD7947",
"{  c #BF7A47",
"}  c #BE7A48",
"|  c #BF7B48",
" . c #C87340",
".. c #C87541",
"X. c #CA7641",
"o. c #C87743",
"O. c #CC7740",
"+. c #CC7741",
"@. c #C67B43",
"#. c #C17945",
"$. c #C37844",
"%. c #C27A45",
"&. c #C17B46",
"*. c #C07B47",
"=. c #C37B46",
"-. c #C47A44",
";. c #C47A45",
":. c #C57B47",
">. c #C77A46",
",. c #C77B46",
"<. c #C77E44",
"1. c #C97841",
"2. c #CD7841",
"3. c #CF7941",
"4. c #CE7942",
"5. c #CD7B43",
"6. c #CC7E43",
"7. c #CD7F43",
"8. c #C97A45",
"9. c #C97F47",
"0. c #CD7F47",
"q. c #C07B48",
"w. c #C17C48",
"e. c #C27C48",
"r. c #C37D49",
"t. c #C47D49",
"y. c #D17B43",
"u. c #D17C43",
"i. c #D17E45",
"p. c #D37E44",
"a. c #D37F45",
"s. c #D47E44",
"d. c #D47F44",
"f. c #D57F44",
"g. c #D57F45",
"h. c #CD8045",
"j. c #CE8044",
"k. c #CD8048",
"l. c #CC8148",
"z. c #CD8148",
"x. c #CD844B",
"c. c #CF844A",
"v. c #D28145",
"b. c #D18246",
"n. c #D28246",
"m. c #D68044",
"M. c #D68045",
"N. c #D78146",
"B. c #D58347",
"V. c #D98346",
"C. c #D98247",
"Z. c #DA8346",
"A. c #D88547",
"S. c #DA8446",
"D. c #DC8547",
"F. c #DE8747",
"G. c #DE8847",
"H. c #D18248",
"J. c #D28349",
"K. c #D58348",
"L. c #D38449",
"P. c #D2874B",
"I. c #D58549",
"U. c #D68449",
"Y. c #D78649",
"T. c #DB8448",
"R. c #D88648",
"E. c #DA8648",
"W. c #DB8648",
"Q. c #DB8748",
"!. c #DC8648",
"~. c #DC8748",
"^. c #DD8749",
"/. c #DE8748",
"(. c #DF8748",
"). c #DA894B",
"_. c #DC8848",
"`. c #DD8848",
"'. c #DD8949",
"]. c #DF8848",
"[. c #DE8948",
"{. c #DF8949",
"}. c #DE8A49",
"|. c #DE894A",
" X c #DD8B4B",
".X c #DF8A4A",
"XX c #DE8B4B",
"oX c #DF8B4B",
"OX c #D98A4C",
"+X c #D98B4F",
"@X c #DD8C4E",
"#X c #E08848",
"$X c #E08948",
"%X c #E08949",
"&X c #E18949",
"*X c #E08A49",
"=X c #E18A49",
"-X c #E28A49",
";X c #E28B49",
":X c #E38B49",
">X c #E08B4A",
",X c #E18B4A",
"<X c #E08B4B",
"1X c #E28A4A",
"2X c #E28B4A",
"3X c #E38B4A",
"4X c #E28C4A",
"5X c #E38C4A",
"6X c #E58C48",
"7X c #E48C49",
"8X c #E48C4A",
"9X c #E28D4C",
/* pixels */
"                                                                ",
"                                                                ",
"                                                                ",
"                                                                ",
"                            L.L. XL.n. X                        ",
"                        2X2X2X X X2X2X2XC.V                     ",
"                    2X2XC.2X2X2X2X2X2X2XY < 6 z.                ",
"                  2X2XV # V 2X2X2X2X2X2XT.n Y 2XT.              ",
"                2X2X2X2.g C.2X2X2XV Y 2X2X2X2X2X2X X            ",
"              G.2X2X2X2X2X2X2X2Xn.- t 2X2X2X2X2X2X2XL.          ",
"             X2X2X2X2X2X2X2X2X2XT.V u.2X2X2Xg 0 n 2X X          ",
"             X2X2XT.n.2X2X2X2X2X2X2X2X2X2X2X- . 4 2XL.          ",
"            2X2Xu.t 4 n.2X2X2X X2X2X2X2X2X2Xk 8 g 2XL.!         ",
"          z.2X2Xg o - u.2X2X2X X2XI < i 2X2X2X2X2X2XL.e.        ",
"          L.2X2XO.p c 2X2X2X2X2X2XV < 8 T.2X2X2X2X2X2.W         ",
"          z.2X2X2X2X2X2X2X2Xc V 2XT.2.u.2X2X2X2X2X2Xn.(         ",
"          u. XC.2X2X2X2X2XC.- t C.2X2X2X2X2X2X2X2X2X2.(         ",
"          h.2X2X2X2X2X2X2X2XV Y 2X2X2X2XI E 2X2X2X2X2.x         ",
"            2X2X2X2X2X2X2X2X2X2X2X2X2X2.- , V 2X2X2X-.          ",
"             XC.I Y 2X2Xn.2.2X2X2X2X2XV o o , u.2XT.-.          ",
"            ( g o & O.T.i , 2.2X2X X Xu.t 6 t n.2X-.!           ",
"            x y o & O.T.9 o V 2X2X2X2X2XC.n.C.2Xh.-.e.          ",
"              W g  .2X2Xu.V T.2X2X2XY g C.2X2Xu.-.!             ",
"                -.L.2X2X2X2X2X2X2XV - # m 2XL.-.(               ",
"                  -.n.2X2X2X2X2X Xg o & 2.L.e.e.                ",
"                    ( ! -.2. XT.T. XV O.z.e.(                   ",
"                      } ( e.-.-.-.2.-.e.( (                     ",
"                            ! e.! ( (                           ",
"                                                                ",
"                                                                ",
"                                                                ",
"                                                                "
};
