/* XPM */
static char *cookie32[] = {
/* columns rows colors chars-per-pixel */
"32 31 74 1 ",
"  c None",
". c #82460E",
"X c #83480F",
"o c #854911",
"O c #8C4B12",
"+ c #934E14",
"@ c #8C5114",
"# c #8C5418",
"$ c #975016",
"% c #995217",
"& c #9E5418",
"* c #935B1D",
"= c #9A5D1C",
"- c #AD5A01",
"; c #B15F06",
": c #A2561A",
"> c #A7591C",
", c #AC5C1E",
"< c #B26007",
"1 c #B5630A",
"2 c #B9670E",
"3 c #A0601D",
"4 c #BD6B12",
"5 c #B25F20",
"6 c #976020",
"7 c #9F6724",
"8 c #A26421",
"9 c #A36A26",
"0 c #AA6B25",
"q c #A66D28",
"w c #A96F29",
"e c #AE752D",
"r c #B2762D",
"t c #B3782F",
"y c #BC7A2E",
"u c #B67B31",
"i c #BB7E33",
"p c #C06E16",
"a c #C4721A",
"s c #C9771F",
"d c #CC7A22",
"f c #C37F32",
"g c #BF8236",
"h c #D4822A",
"j c #D9872F",
"k c #C48436",
"l c #C28639",
"z c #C5893B",
"x c #CA8B3B",
"c c #D38735",
"v c #DC8A32",
"b c #D28E3C",
"n c #CD903F",
"m c #E08E36",
"M c #E6943C",
"N c #E9973F",
"B c #CE9140",
"V c #D19442",
"C c #D89541",
"Z c #D69945",
"A c #DB9B45",
"S c #DC9E48",
"D c #E29A43",
"F c #EA9941",
"G c #EEA147",
"H c #E5A34B",
"J c #EEA449",
"K c #ECA94F",
"L c #F0A64B",
"P c #F2AA4E",
"I c #EEAC51",
"U c #F1AD51",
"Y c #F5B356",
"T c #F7B658",
/* pixels */
"          -;24442<-             ",
"        <dmFFFFFFFMvs<          ",
"      ;hNFFFJLLLJGFFFFh2        ",
"     2MFFLTTTTTTTeOtPFFNd-      ",
"    2MFGUTTTTTTTT.5oHTUFFv;     ",
"   <MFL9.7TTTTTTTo5,*TTTGFv;    ",
"  -hFJT.5&wTTTTTTq%O8TTTTJFv-   ",
"  4FFTT*O.yTTTUTTUryUTTTTTGFd   ",
" -vFUTTIxHTTTTTTTTTTTTTriTTFN<  ",
" <FFTTTTTTTTT9uTTTTTTTSO$*TPFh  ",
" sFLTTUTTTTTV+%*TTTTTTi&5$lTFN< ",
" jFTTTTTTTTTu:5OSTTTTTg$,.CTPFs ",
"-MFTTTTTTTTTxO%oITTTTTT8@fTTTFv-",
"<FFTTTSzTTTTTkrHTTTTTTTTTTTTTFN-",
"4FJTTZ.$@ITTTTTTTTTTTTTTTTTTTGF<",
"4FJTTr:5+kTTTTTTSzTTTTTTT9.9TJF4",
"4FJTTe:,XHTTTTTB.+#ITTTTn+5+lJF4",
"4FJTTH@@bTTTTTT9,5&uTTTTg&55oDF4",
"<FFTTUUTTTTTTTT*55+iTTTTIo&,.cF2",
"-NFTTTTTTTTUTTTq::@UTTTTTJ0=kFF<",
" vFTTTTTTTTTTTTK=3DTTJTTTTTTTFM-",
" sFJTTTTTTTTTTTTTTTTTTTTTTTTPFh ",
" <NFTTTTTTnlTTTTTTTTTn6lTTTTFFp ",
"  hFJTTTTBO+rTTTTTTTI.,+tTTLFm- ",
"  <MFPTTTz%5oHTTTTTTSO5>=TPFN4  ",
"   4FFPTTHo5+gTTTTTTH.:.SLFFa   ",
"    aFFJTTw.=ITTTTTTTx0cFFMp    ",
"     pMFFLTKTTTTTTTTUJFFFh<     ",
"      <hFFFFJLLLJGFFFFMh2       ",
"        <dvNFFFFFFMjd4-         ",
"          --24442<-             "
};
