/* XPM */
static char *cookie2_32[] = {
/* columns rows colors chars-per-pixel */
"32 32 135 2 ",
"   c None",
".  c #482514",
"X  c #4D2C12",
"o  c #472A1D",
"O  c #4D2E1B",
"+  c #512C17",
"@  c #512F1C",
"#  c #5B341B",
"$  c #623C1C",
"%  c #513420",
"&  c #593424",
"*  c #5E3B21",
"=  c #5A3A28",
"-  c #603B25",
";  c #5F401F",
":  c #5E4034",
">  c #674623",
",  c #6F4623",
"<  c #6E4C26",
"1  c #6F452B",
"2  c #7C4B27",
"3  c #744D2B",
"4  c #784A2F",
"5  c #75512B",
"6  c #7C532D",
"7  c #754730",
"8  c #744E33",
"9  c #754F3C",
"0  c #7D5832",
"q  c #7B523B",
"w  c #84572F",
"e  c #87582F",
"r  c #855030",
"t  c #855B33",
"y  c #8A5C32",
"u  c #805C3B",
"i  c #905D32",
"p  c #8E623A",
"a  c #906136",
"s  c #92633A",
"d  c #9A643A",
"f  c #946A3E",
"g  c #9B683D",
"h  c #A0663E",
"j  c #A06B3C",
"k  c #825A41",
"l  c #8C5F43",
"z  c #825B49",
"x  c #865E50",
"c  c #886147",
"v  c #8C624B",
"b  c #956742",
"n  c #9D6E43",
"m  c #9E6D4C",
"M  c #9B764E",
"N  c #976B53",
"B  c #94745C",
"V  c #A66E40",
"C  c #A37242",
"Z  c #A97345",
"A  c #A47448",
"S  c #AA744A",
"D  c #AC7B4C",
"F  c #B77547",
"G  c #B57C4D",
"H  c #A17354",
"J  c #A27952",
"K  c #AC7D55",
"L  c #A37658",
"P  c #AD7B5B",
"I  c #B57D52",
"U  c #BE7C53",
"Y  c #997661",
"T  c #AA7F6A",
"R  c #AF814C",
"E  c #BA814C",
"W  c #AF8556",
"Q  c #B78451",
"!  c #BC8454",
"~  c #BB8A55",
"^  c #B1835C",
"/  c #BA8359",
"(  c #BD8B5C",
")  c #A68062",
"_  c #AC8265",
"`  c #BA8966",
"'  c #B98B6E",
"]  c #BE9162",
"[  c #B8926F",
"{  c #B28C75",
"}  c #B48E7A",
"|  c #BC9577",
" . c #C2864E",
".. c #C58652",
"X. c #C08952",
"o. c #C28958",
"O. c #CC9156",
"+. c #CB955D",
"@. c #D1975D",
"#. c #C48E63",
"$. c #C39462",
"%. c #C89565",
"&. c #CC9A60",
"*. c #C4966C",
"=. c #CB9B6A",
"-. c #D19662",
";. c #D49F66",
":. c #D09E6E",
">. c #C59771",
",. c #CC9C74",
"<. c #D6A366",
"1. c #DBA062",
"2. c #D3A26C",
"3. c #DAA76A",
"4. c #DBA96D",
"5. c #D3A371",
"6. c #DBA573",
"7. c #DDAC73",
"8. c #D9AE7B",
"9. c #DFB47D",
"0. c #E1AA6C",
"q. c #E0AF75",
"w. c #E1B276",
"e. c #E1B47E",
"r. c #EABA78",
"t. c #D9AA80",
"y. c #DFB984",
"u. c #DFBB88",
"i. c #E6BB83",
"p. c #E8BE83",
"a. c #E6BD88",
"s. c #EDC385",
"d. c #EAC38E",
"f. c #F1CB8E",
"g. c #F7D99D",
/* pixels */
"                                                                ",
"                                                                ",
"                                                                ",
"                                                                ",
"                                                                ",
"                                                                ",
"                                                                ",
"                                                                ",
"                            6.:._ >.P #.t.,./                   ",
"                      d.a.8.4.8.| Y H *.5./ S S S               ",
"                  d.i.-.w.w.P J 9 - D +.( =.%.( I ^             ",
"                8.;.e.U 8.&.Z <.J B ^ o.G h Z I N q b           ",
"              d.e.8.} ^ _ K #.( c z & 1 ! ! I k @ O t           ",
"            { c 2.=.,.5.4 3 H 7 $.D S K L m @ o 3 s p           ",
"          a.T ^ ..#.| d D 4.] ! F 2 ` z : % t C n p p           ",
"          s.#.8.@.' q 8 u.y.=.*.G g o.V * 0 n t y t s           ",
"          [ ( *.) v . u i.=.H & + D r $ a d 2 y 6 6 6           ",
"          K p.` l W $.8. .E i C # x = t j s y t 6 t 0           ",
"          9.$.=.G w.r.+.Z i t X.s S f t t 6 , t 6 5             ",
"          f.A M 0.<.w.<.E # C O.E j a e 5 5 3 < >               ",
"          g.8.w.m Q <.2.4.R 3 D E y 6 6 6 < ;                   ",
"            s.q.v 6 +.4.3.! e X Z e 5 5 >                       ",
"              q.q s O.&.+.~ C $ C 6 <                           ",
"                                                                ",
"                                                                ",
"                                                                ",
"                                                                ",
"                                                                ",
"                                                                ",
"                                                                ",
"                                                                ",
"                                                                "
};
