/* XPM */
static char *cookie1_32[] = {
/* columns rows colors chars-per-pixel */
"31 32 61 1 ",
"  c None",
". c #5F1613",
"X c #601613",
"o c #641913",
"O c #691E16",
"+ c #6D2217",
"@ c #73261A",
"# c #7A2D1E",
"$ c #7C301F",
"% c #7D3220",
"& c #833622",
"* c #8A3D25",
"= c #8E4229",
"- c #934429",
"; c #9A4B2D",
": c #9F502F",
"> c #9E4F30",
", c #A55532",
"< c #A95732",
"1 c #AC5B33",
"2 c #AA5E38",
"3 c #B15F35",
"4 c #9A6237",
"5 c #9C653C",
"6 c #A2683C",
"7 c #B46237",
"8 c #B46339",
"9 c #B86639",
"0 c #B26F3B",
"q c #BA6B3A",
"w c #B4713D",
"e c #BB753F",
"r c #C26F3D",
"t c #C5723E",
"y c #A66B41",
"u c #A86B40",
"i c #AE7143",
"p c #B37242",
"a c #BD7641",
"s c #BD7946",
"d c #BB7A48",
"f c #C27641",
"g c #CA7642",
"h c #C47B44",
"j c #CC7C43",
"k c #C37D49",
"l c #CF7F48",
"z c #D37D45",
"x c #CE8145",
"c c #C58048",
"v c #CC834A",
"b c #D38246",
"n c #DA8647",
"m c #D5844A",
"M c #DC8649",
"N c #D6894C",
"B c #DC894A",
"V c #D68C53",
"C c #DE8E50",
"Z c #E58C47",
"A c #E48C4A",
/* pixels */
"             kvCNgxV           ",
"          CAAAAAAAAAAAv        ",
"        NAAAAAbbAAAAAt-2       ",
"      vAAAgAAAAAAAAAA*XoNk     ",
"     AAAA+.tAAAAAAAAAz-7AAb    ",
"    AAAAMO&AAAAAANAAAAAAAAAN   ",
"   AAAAAAAAAAAAA9@rAAAAAAAAAc  ",
"  aZAAAAAAAAAAAAo.1AAAAAAAAAN  ",
"  NAAAAAAAAAAAAA11MAAAAt;,bAA  ",
" NAAAAMxAAAAAAAAAAAAAAAoX.;AAk ",
" NAAAAgbAAAAAAAAAAAAAAA@XX&AAx ",
" AAAA;.ogAAAAAbAAAAAAAAg;-gAAkp",
"sAZAr.XXtAAAAANAA>+,AAAAAAAAAkk",
"NAAAzOX*AAAAAAAAAoX.gAAAAAAAgkp",
"gAAAAAAAAAAAAANAA,&:AAAMbAAAAk0",
"kAAAAAAAAAAA7%gAAAAAAAAAAAAAAek",
"gAbbAAAAAAAAO.1AAAAAAAAAAAAAAwk",
"xAAAAAAAAAAA1+gAAAAAAMAAAAAAA0p",
"aAAAAAAAAAAAAAAAAAAA9&rAAAAAA04",
" AAAANAAAAAAAAAAAAAMo.X1AAAANw ",
" AAAAbAAAAAAAAAAAAAt.XX.gAAAgk ",
" wA7oX-AAA&$NAAAAxAMOXX.9AAMws ",
" 5k*.XolNqX.1AAAANAAg113MAAwki ",
"  6=.X#AAbXX,AAAAAAAAAAAAAekk  ",
"   p,,zAAA9,bAAAAAz9AAZAAgski  ",
"   pfAAAAAAAAAAAA9o.:AZAgak6   ",
"    saNAAAAAAAAAbXXX-AAkkkp    ",
"     dfbAAAAAAANb#.XfAkkkk     ",
"      ukeakgAAAAAM<gnkkkp      ",
"        kkkkfkggxxgkkkky       ",
"         iskkkkkkkkkpp         ",
"            pskppkp            "
};
