/* XPM */
static char *flower32[] = {
/* columns rows colors chars-per-pixel */
"32 27 241 2 ",
"   c None",
".  c #000000",
"X  c #050304",
"o  c #070505",
"O  c #090607",
"+  c #090609",
"@  c #170F0D",
"#  c #170F12",
"$  c #1C0D11",
"%  c #1D091D",
"&  c #1B1215",
"*  c #1A101A",
"=  c #211713",
"-  c #251916",
";  c #261A16",
":  c #2D1B13",
">  c #2B1D19",
",  c #351A1E",
"<  c #36251F",
"1  c #2B1D21",
"2  c #2E1F23",
"3  c #2E1F24",
"4  c #291029",
"5  c #2E1D2E",
"6  c #302025",
"7  c #3E2A24",
"8  c #3F2B25",
"9  c #36252A",
"0  c #3E2A2E",
"q  c #342034",
"w  c #3F2B31",
"e  c #3A243A",
"r  c #3C253C",
"t  c #512A18",
"y  c #522D1E",
"u  c #5E3E1E",
"i  c #69341A",
"p  c #431E28",
"a  c #422D26",
"s  c #432D27",
"d  c #452229",
"f  c #4B212D",
"g  c #402C2B",
"h  c #532722",
"j  c #562F2E",
"k  c #49322A",
"l  c #4B332B",
"z  c #50362E",
"x  c #422B3D",
"c  c #532532",
"v  c #542A36",
"b  c #562C38",
"n  c #542F3A",
"m  c #562F3A",
"M  c #4F353D",
"N  c #553A31",
"B  c #583C33",
"V  c #54313B",
"C  c #51373F",
"Z  c #55363F",
"A  c #553A39",
"S  c #6D3B28",
"D  c #7A353B",
"F  c #7F383C",
"G  c #54401A",
"H  c #6A483D",
"J  c #442644",
"K  c #442A44",
"L  c #4F314F",
"P  c #573640",
"I  c #533841",
"U  c #553A42",
"Y  c #573B44",
"T  c #5D3F48",
"R  c #572352",
"E  c #512A51",
"W  c #572F57",
"Q  c #503150",
"!  c #573152",
"~  c #553555",
"^  c #573657",
"/  c #583658",
"(  c #6E3042",
")  c #743346",
"_  c #7A3649",
"`  c #7C374A",
"'  c #683859",
"]  c #7D3F51",
"[  c #722F6B",
"{  c #643E64",
"}  c #7C257C",
"|  c #703670",
" . c #7C3672",
".. c #64444D",
"X. c #765044",
"o. c #684650",
"O. c #6C4954",
"+. c #734E5A",
"@. c #7C4A59",
"#. c #76505C",
"$. c #78525D",
"%. c #784D6D",
"&. c #7C5461",
"*. c #704570",
"=. c #7C4D7C",
"-. c #8D4122",
";. c #804D24",
":. c #A35634",
">. c #886E35",
",. c #CE6839",
"<. c #82394E",
"1. c #8A3F4F",
"2. c #813E52",
"3. c #813677",
"4. c #80574A",
"5. c #8D495D",
"6. c #834F6B",
"7. c #815764",
"8. c #855A67",
"9. c #875B69",
"0. c #895D6A",
"q. c #8A5E6B",
"w. c #8F5E6D",
"e. c #9D5167",
"r. c #A34862",
"t. c #A94A65",
"y. c #B14E6A",
"u. c #B9516F",
"i. c #A85D73",
"p. c #8F616F",
"a. c #926372",
"s. c #936472",
"d. c #996877",
"f. c #AD677C",
"g. c #A26E7E",
"h. c #A46F7F",
"j. c #F27C46",
"k. c #F37E4A",
"l. c #F47F4C",
"z. c #C95979",
"x. c #CD5A7B",
"c. c #9F8444",
"v. c #F58150",
"b. c #F2BE53",
"n. c #FCC14F",
"m. c #FCC352",
"M. c #FCC555",
"N. c #8F2B8F",
"B. c #9B2E9B",
"V. c #BD38BD",
"C. c #825082",
"Z. c #845284",
"A. c #A87282",
"S. c #AA7384",
"D. c #B67286",
"F. c #B47A8C",
"G. c #BA7A8D",
"H. c #B97D8F",
"J. c #BA7C8F",
"K. c #BB7F91",
"L. c #A264A2",
"P. c #A868A8",
"I. c #AA69AA",
"U. c #B470B4",
"Y. c #C46480",
"T. c #DC6184",
"R. c #CB748E",
"E. c #D3718D",
"W. c #D27B95",
"Q. c #D47D97",
"!. c #DA7D98",
"~. c #E26387",
"^. c #E26E8F",
"/. c #EE698F",
"(. c #EE6F93",
"). c #F26A91",
"_. c #FA6E96",
"`. c #FA7098",
"'. c #FA7198",
"]. c #FA749A",
"[. c #FA749B",
"{. c #FB789E",
"}. c #FB799E",
"|. c #FB7A9F",
" X c #FB7DA2",
".X c #FB7FA3",
"XX c #C93CC9",
"oX c #D33FD3",
"OX c #DA41DA",
"+X c #C97DC9",
"@X c #DA7CDA",
"#X c #E667E6",
"$X c #F063F0",
"%X c #FF67FF",
"&X c #F372F3",
"*X c #C78499",
"=X c #C7879B",
"-X c #CD8B9F",
";X c #D987A0",
":X c #D38FA4",
">X c #D98BA3",
",X c #DF8FA7",
"<X c #D990A6",
"1X c #D892A7",
"2X c #DA94A9",
"3X c #EE80A0",
"4X c #E18FA7",
"5X c #F682A4",
"6X c #FB80A4",
"7X c #FC83A6",
"8X c #FC87A9",
"9X c #FC88AA",
"0X c #FC8AAB",
"qX c #E098AE",
"wX c #E299AF",
"eX c #E89CB3",
"rX c #FD91B1",
"tX c #FD93B2",
"yX c #FD94B3",
"uX c #FD95B4",
"iX c #FD96B5",
"pX c #FD98B6",
"aX c #FD9AB7",
"sX c #FE9BB8",
"dX c #FE9DBA",
"fX c #FE9EBA",
"gX c #EEA2B9",
"hX c #F3A5BC",
"jX c #F5A6BE",
"kX c #FEA4BF",
"lX c #D383D3",
"zX c #DA87DA",
"xX c #FFA9C3",
"cX c #FFAAC4",
"vX c #FFACC5",
"bX c #FFADC6",
"nX c #EA89EA",
"mX c #F384F3",
"MX c #FF83FF",
"NX c #F396F3",
"BX c #FF9EFF",
/* pixels */
"                                q ~                             ",
"                        O       +XBX.   + Z.Z.                  ",
"                T 9   . bXs.  . BXBX. L BXBXP.                  ",
"              . bX-Xq.. bXbX. . mXmXJ #X&XNXK   I F.8.          ",
"              . bXdXdXI pX9XI . ....V.V.....  . bXbXA.    I I   ",
"    * *     K.K.q.5X[.v uX/.$.J.bXbX% 4 jXbXw.. dX Xg.# J.eXA.  ",
"  . BXBX/ . bXbX-X9._.c _.c uX|.6XJ.B.MX%.!. XC pX_.C uX_.pX+.  ",
"  . BXBXnXE gXbX XQ.d : j 1.`.[.D.3 R ~ x g.).f ^.) R.~.m P &   ",
"r *.U.BXOXN.6 2X6Xy.c.m.m.G 5.p.6 2XbXdXuXe.F S i i <.( uXkXbXI ",
"~ BXL.E ' *X*X&.m $ n.n.b.u Y.*X*Xo.wX>XT.<.t j.v.v.-.u.[.dXjXC ",
"~ BXBX%X .2XbXpX_.c >.>.;.z._.pXbXI #.#.) z.t k.k.k.:.i.uXbXO.  ",
"  r zX@XXX[ 6.>Xm r.z.p r.f.;X<X0 d.bXbX(.2., h ,.,.D ] I I     ",
"    =.=.} oX3.&.pX_.E.` |.m . . N A.bXbX7.Q._.t.@.` _._.bXbX.   ",
"~ lXBXBX$X| I bXbX4X..3X9XI   . H g :X..wX9X8XC bX8X|.uXbXbX.   ",
"~ BXBXP.{   w &.&.w I bX:XA     > >   . bXbX:Xw A.bXbXbXbXbX.   ",
"  5 5               M -Xs.k @   > >   @ -X-X3     3 -X-X-X-X.   ",
"                          . N   > > = 7                         ",
"                          . N   > X.s                           ",
"                          . N   > z                             ",
"                          . k   s >                             ",
"                            > > 4.>                             ",
"                            ; < B                               ",
"                              N N                               ",
"                              s N                               ",
"                              . N                               ",
"                              . N                               ",
"                                ;                               "
};
