/* XPM */
static char *girl32[] = {
/* columns rows colors chars-per-pixel */
"29 32 144 2 ",
"   c None",
".  c #757C77",
"X  c #A06A67",
"o  c #AB7474",
"O  c #A27979",
"+  c #D15D5B",
"@  c #FF4747",
"#  c #FF4848",
"$  c #FF4A4A",
"%  c #FF4B4B",
"&  c #FF4E49",
"*  c #FB4F4D",
"=  c #FF4D4D",
"-  c #FF4E4E",
";  c #FF4F4F",
":  c #FF5249",
">  c #FF524D",
",  c #FF564F",
"<  c #FF5050",
"1  c #FF5353",
"2  c #FF5552",
"3  c #FF5454",
"4  c #FF5858",
"5  c #FF5A5A",
"6  c #FF5C5C",
"7  c #FF5F5F",
"8  c #FF6155",
"9  c #FE6E50",
"0  c #F66F5F",
"q  c #FE725E",
"w  c #CD6262",
"e  c #FF6060",
"r  c #FF6262",
"t  c #FF6363",
"y  c #FF6463",
"u  c #FF6565",
"i  c #FF6666",
"p  c #FF6766",
"a  c #FF6966",
"s  c #FF6967",
"d  c #FF6A66",
"f  c #FF6D65",
"g  c #F97460",
"h  c #FF7165",
"j  c #FF7964",
"k  c #FE7C64",
"l  c #FE7F65",
"z  c #58847E",
"x  c #808176",
"c  c #B6887C",
"v  c #B9987D",
"b  c #FE8555",
"n  c #FE8A5D",
"m  c #FE8D5F",
"M  c #FEB35F",
"N  c #FE8166",
"B  c #FE9063",
"V  c #FE9362",
"C  c #FE9762",
"Z  c #FE9A62",
"A  c #FE9B62",
"S  c #FE9C62",
"D  c #FE9F67",
"F  c #FE926F",
"G  c #FEA462",
"H  c #FEB660",
"J  c #FEAD7E",
"K  c #FEAF7F",
"L  c #FEB076",
"P  c #FEC177",
"I  c #5E8C89",
"U  c #5F8E8B",
"Y  c #7A8F8F",
"T  c #639391",
"R  c #6C9696",
"E  c #669999",
"W  c #6B9C9C",
"Q  c #6F9F9F",
"!  c #75A3A3",
"~  c #76A4A4",
"^  c #7CA8A8",
"/  c #7DA9A9",
"(  c #00CCFF",
")  c #03CDFF",
"_  c #12D0FF",
"`  c #18D1FF",
"'  c #39D7FD",
"]  c #51DAFB",
"[  c #52DAFA",
"{  c #64DAF0",
"}  c #69DAF0",
"|  c #6CDDF6",
" . c #859F9F",
".. c #91A08D",
"X. c #9CA890",
"o. c #A4A98C",
"O. c #A6A498",
"+. c #B0B295",
"@. c #B4B69A",
"#. c #87A9A5",
"$. c #91B6B6",
"%. c #95B8B8",
"&. c #9DBEBE",
"*. c #AAB9B9",
"=. c #A9BFBF",
"-. c #E29A87",
";. c #FE9A82",
":. c #FEA886",
">. c #F5B085",
",. c #FEBF88",
"<. c #FEBE89",
"1. c #FEC581",
"2. c #FEC884",
"3. c #FEC986",
"4. c #FECA87",
"5. c #FEC48A",
"6. c #FEC68C",
"7. c #FEC78C",
"8. c #FECB8A",
"9. c #FEC98D",
"0. c #FEC193",
"q. c #FECE90",
"w. c #FECF92",
"e. c #FECF93",
"r. c #FECE96",
"t. c #FCC89F",
"y. c #FED29B",
"u. c #FED49D",
"i. c #D9DBBF",
"p. c #EFCAA4",
"a. c #F7C2A6",
"s. c #FBD6A2",
"d. c #F9D7A6",
"f. c #FADEB7",
"g. c #A9C6C6",
"h. c #AEC9C8",
"j. c #B3CCCC",
"k. c #98E0E8",
"l. c #D8E2CF",
"z. c #DCE2CD",
"x. c #E6E6E6",
"c. c #E8E8E8",
"v. c #EDEDED",
"b. c #FFFFFF",
/* pixels */
"                                                          ",
"                          @                               ",
"                        @ @                               ",
"                  @ @   @ =                               ",
"                  = = = e e e e e e e s s s               ",
"                    = e e e e e e e e e s s s s           ",
"                  = 6 s e e e e e e e e s s e e           ",
"                = = e s e e e e e e e s s s e e e         ",
"              @ @ = e e e e e e s s e s s s e e e         ",
"              @ @ 1 e e e e s e s e e s s s e e e         ",
"              @ @ 1 e e s s s s e e e e s e e e e         ",
"              @ @ 1 e e s s s s e e e e s e e e e         ",
"              @ @ = e e s e e e e e e g l e e e e         ",
"              @ @ = e e s s e e e s l S S s e e e         ",
"              = @ 9 B s V G L a.8.4.8.8.4.q.<.G           ",
"              = = H S e S P z.` | e.q.q.s.' ] 0.          ",
"              @ : H V e S 8.k.( _ u.q.q.i.( ( a.          ",
"              @ = b l e S 8.l._ { q.q.q.s.] | ;.          ",
"              @ @ = e e n 1.q.f.u.q.q.q.q.u.:.s e         ",
"            @ @ @ 6 e e + x ..X.o.+.@.v g : 1 e e         ",
"          @ @ @ @ 6 e e . z I E E ~ ~ I X @ = e e         ",
"          @ @ @ @ 1 6 1 p.O.T E E W &.#.-.@ @ =           ",
"          @ @ @ @ @ @ F q.l Y E E E R >.8.8 @             ",
"            @ @ @ @ q q.5.= *.g.g.g.*.0 q.5.:             ",
"              @ @ @ K q.l o E E E E E O K q.5.            ",
"                  @ N N w E E E E E E E c q.              ",
"                         .E E E E E E E W                 ",
"                          j.%./ ~ / $.h.                  ",
"                            b.b.  v.v.x.                  ",
"                            b.b.  x.x.x.                  ",
"                            b.b.    x.x.                  ",
"                            b.      x.                    "
};
