/* XPM */
static char *house32[] = {
/* columns rows colors chars-per-pixel */
"32 28 154 2 ",
"   c None",
".  c #000000",
"X  c #000100",
"o  c #010100",
"O  c #000101",
"+  c #010101",
"@  c #010201",
"#  c #020201",
"$  c #020202",
"%  c #030202",
"&  c #030303",
"*  c #040303",
"=  c #040403",
"-  c #040404",
";  c #050404",
":  c #050504",
">  c #050505",
",  c #070505",
"<  c #040607",
"1  c #070707",
"2  c #0A0304",
"3  c #090704",
"4  c #080506",
"5  c #0B0506",
"6  c #0C0505",
"7  c #0C0506",
"8  c #0F0406",
"9  c #0F0507",
"0  c #0C0607",
"q  c #0A0805",
"w  c #0F0608",
"e  c #04080A",
"r  c #04090C",
"t  c #050A0D",
"y  c #050B0E",
"u  c #050B0F",
"i  c #060B0E",
"p  c #070B0E",
"a  c #080808",
"s  c #0A0A0A",
"d  c #0B0B0A",
"f  c #0B0B0B",
"g  c #0E0F09",
"h  c #0D0D0D",
"j  c #110507",
"k  c #110607",
"l  c #100B04",
"z  c #120C04",
"x  c #160F05",
"c  c #170F05",
"v  c #110709",
"b  c #120809",
"n  c #13080A",
"m  c #150B0C",
"M  c #160B0D",
"N  c #170B0D",
"B  c #180C0E",
"V  c #171006",
"C  c #191206",
"Z  c #1A1306",
"A  c #10100A",
"S  c #10110A",
"D  c #11120A",
"F  c #151008",
"G  c #13130C",
"H  c #181208",
"J  c #191208",
"K  c #1C1509",
"L  c #060C10",
"P  c #070D10",
"I  c #080E11",
"U  c #0C1013",
"Y  c #0E1215",
"T  c #0E1316",
"R  c #101010",
"E  c #111111",
"W  c #131313",
"Q  c #111314",
"!  c #161614",
"~  c #181816",
"^  c #181818",
"/  c #191919",
"(  c #1A1A1A",
")  c #211D18",
"_  c #20211A",
"`  c #272219",
"'  c #25211A",
"]  c #2B241A",
"[  c #2C2518",
"{  c #5C4439",
"}  c #5C443A",
"|  c #5C453A",
" . c #5F463A",
".. c #5F463B",
"X. c #5D463C",
"o. c #5E4839",
"O. c #61473A",
"+. c #60463B",
"@. c #60473B",
"#. c #61473B",
"$. c #62473B",
"%. c #63493A",
"&. c #62483B",
"*. c #614A3B",
"=. c #624A3B",
"-. c #62483C",
";. c #63483C",
":. c #63483D",
">. c #63493D",
",. c #624A3C",
"<. c #624A3F",
"1. c #64483C",
"2. c #65493C",
"3. c #64493D",
"4. c #65493D",
"5. c #64493E",
"6. c #644A3E",
"7. c #654A3E",
"8. c #654A3F",
"9. c #654B3F",
"0. c #674C3D",
"q. c #6C4F3A",
"w. c #6A4D3C",
"e. c #6E513A",
"r. c #6D503D",
"t. c #71523B",
"y. c #72533B",
"u. c #5A4841",
"i. c #5A4842",
"p. c #5C4840",
"a. c #5F4A41",
"s. c #5C4A43",
"d. c #5D4A43",
"f. c #5C4B44",
"g. c #5D4B44",
"h. c #604A40",
"j. c #624A40",
"k. c #654C41",
"l. c #614D44",
"z. c #665047",
"x. c #6FA1C3",
"c. c #78A8CA",
"v. c #77AED4",
"b. c #77AED5",
"n. c #77AFD5",
"m. c #77AFD6",
"M. c #78ACD0",
"N. c #78AED4",
"B. c #78AFD6",
"V. c #79B0D6",
"C. c #79B0D7",
"Z. c #7AB0D6",
"A. c #7AB0D7",
"S. c #7AB1D7",
/* pixels */
"                            ] ' ( (                             ",
"                            z z = =                             ",
"                        ] ' H H H b ) ~                         ",
"                        C C C V z z q =                         ",
"                    ' ! q H e.e.@.3.= = ! !                     ",
"                    A A = 3 y.y.w.3.= = = =                     ",
"                ! ! A A o. .w.e.3.3. . .= = ! !                 ",
"                e e = g 3.3.3.3.3.3.3.3.= = = =                 ",
"            Y Y e e  .@.3.3.3.3.3.3.3.3.@.@.= = g g             ",
"            e = e P i.j.3.3.3.3.3.3.3.3.3.3.= = = =             ",
"        g Y e P i.i.i.i.3.3.3.3.3.3.3.3.3.3.@.@.= = g g         ",
"        w = g I i.3.j.3.3.3.3.3.3.3.3.3.3.3.3.3.= = = =         ",
"    b b 3 3 @.i.i.i.3.3.3.3.3.3.3.3.3.3.3.3.3.3.@.@.= = 1 1     ",
"    v 3 v v 3.3.j.j.j.j.3.3.j.j.j.j.3.3.j.j.j.j.3.3.= = = =     ",
"3 b j v 3 3 3.3.N.N.N.N.3.3.v.N.N.N.3.3.v.N.v.v.3.3.= = = = = = ",
"= = b B v b 3.3.C.C.C.C.3.3.C.C.C.C.3.3.C.C.C.C.3.3.= = g g = = ",
"= =     3 3 3.3.N.C.N.N.3.3.N.N.v.N.3.3.N.N.v.N.3.3.= =     = = ",
"g g     3 = 3.3.N.N.N.N.3.3.c.c.N.N.3.3.c.c.N.N.3.3.= =     g g ",
"        = = 3.3.3.3.3.3.3.3.3.3.3.3.3.3.3.3.3.3.3.3.= =         ",
"        = = 3.3.z.z.z.z.3.3.z.z.z.z.3.3.z.z.z.z.3.3.= =         ",
"        = = @.3.v.N.v.v.3.3.v.v.v.v.3.3.v.v.v.v.3.3.= =         ",
"        = = 3.3.C.C.C.C.3.3.C.C.C.C.3.3.C.C.C.C.3.3.= =         ",
"        = = @.3.v.v.v.v.@.3.v.v.v.N.3.3.v.v.v.v.@.3.= =         ",
"        = = 3.3.c.c.c.c.3.3.C.C.C.C.3.3.c.c.c.c.3.3.= =         ",
"        = = @.@.@.3.@.@.@.@.v.v.v.v.@.3.@.@.@.@.@.@.= =         ",
"        = =  . . . . . . . .x.x.x.x. . . . . . . . .= =         ",
"        = = = = = = = = = = = = = = = = = = = = = = = =         ",
"        ( ( ( ( ( ( ( ( ( ( ( ( ( ( ( ( ( ( ( ( ( ( ( (         "
};
