/* XPM */
static char *sakura32[] = {
/* columns rows colors chars-per-pixel */
"32 31 178 2 ",
"   c None",
".  c #FEF828",
"X  c #F6AC7D",
"o  c #F7B17B",
"O  c #FACE5A",
"+  c #FBD368",
"@  c #FBDD68",
"#  c #FBDB6D",
"$  c #F9CA70",
"%  c #FBD571",
"&  c #FBD976",
"*  c #FBD57F",
"=  c #F59D9B",
"-  c #F6A48F",
";  c #F6A195",
":  c #F6A99A",
">  c #F286AA",
",  c #F286AB",
"<  c #F287AC",
"1  c #F288AC",
"2  c #F289AD",
"3  c #F389AD",
"4  c #F38AAD",
"5  c #F38AAE",
"6  c #F38BAE",
"7  c #F38CAF",
"8  c #F38DAF",
"9  c #F495A7",
"0  c #F491AB",
"q  c #F38DB0",
"w  c #F38EB0",
"e  c #F38EB1",
"r  c #F48DB0",
"t  c #F48EB0",
"y  c #F48EB1",
"u  c #F48FB1",
"i  c #F490B1",
"p  c #F490B2",
"a  c #F491B2",
"s  c #F491B3",
"d  c #F492B3",
"f  c #F493B4",
"g  c #F494B4",
"h  c #F494B5",
"j  c #F495B5",
"k  c #F595B6",
"l  c #F596B6",
"z  c #F497B7",
"x  c #F599B8",
"c  c #F59AB8",
"v  c #F59AB9",
"b  c #F59BB9",
"n  c #F59BBA",
"m  c #F59CBA",
"M  c #F59DBB",
"N  c #F8BCA8",
"B  c #F6A0BD",
"V  c #F6A1BE",
"C  c #F6A2BE",
"Z  c #F6A2BF",
"A  c #F6A3BF",
"S  c #F7AEBD",
"D  c #F9C78D",
"F  c #FBD580",
"G  c #FBD581",
"H  c #FBD582",
"J  c #FBD484",
"K  c #FAD28B",
"L  c #FAD18D",
"P  c #FAD28D",
"I  c #FACF94",
"U  c #FACE96",
"Y  c #FACC9A",
"T  c #FACB9E",
"R  c #FACD9D",
"E  c #FAD197",
"W  c #FBD891",
"Q  c #FAD399",
"!  c #FAD29F",
"~  c #FCE48F",
"^  c #FDE893",
"/  c #FDE89D",
"(  c #F9C1A3",
")  c #FACAA2",
"_  c #FACDA0",
"`  c #FACEA2",
"'  c #F9C9A6",
"]  c #FACDA5",
"[  c #F9C7AC",
"{  c #FACDA9",
"}  c #FBD7A7",
"|  c #FBDCA7",
" . c #FBD5AC",
".. c #F9C5B1",
"X. c #F9C6B1",
"o. c #F9C3B8",
"O. c #F9C2BF",
"+. c #FBD7B7",
"@. c #FCE2A1",
"#. c #F6A4C0",
"$. c #F6A5C0",
"%. c #F6A5C1",
"&. c #F6A6C1",
"*. c #F6A7C2",
"=. c #F6A9C3",
"-. c #F7ADC3",
";. c #F6A9C4",
":. c #F6AAC4",
">. c #F7ACC5",
",. c #F7ADC6",
"<. c #F7AFC7",
"1. c #F8B6C6",
"2. c #F8BFC5",
"3. c #F7B0C8",
"4. c #F7B1C9",
"5. c #F7B2C9",
"6. c #F7B2CA",
"7. c #F7B3CA",
"8. c #F7B4CB",
"9. c #F7B5CC",
"0. c #F8B5C9",
"q. c #F8B6CC",
"w. c #F8B7CD",
"e. c #F8B8CE",
"r. c #F8B9CE",
"t. c #F8B9CF",
"y. c #F8BACF",
"u. c #F8BBCF",
"i. c #F8BAD0",
"p. c #F8BBD0",
"a. c #F8BED2",
"s. c #F8BFD3",
"d. c #F9C1C0",
"f. c #F8C0C2",
"g. c #F9C3C4",
"h. c #FACEC1",
"j. c #FACDC6",
"k. c #FACDC8",
"l. c #FAD3C5",
"z. c #FBDBCE",
"x. c #F8C0D3",
"c. c #F9C2D4",
"v. c #F9C2D5",
"b. c #F9C5D7",
"n. c #FACFD7",
"m. c #F9C6D8",
"M. c #F9C7D9",
"N. c #F9C8D9",
"B. c #F9C9DA",
"V. c #FACADA",
"C. c #FACBDB",
"Z. c #FACCDB",
"A. c #FACEDD",
"S. c #FACFDE",
"D. c #FAD4D8",
"F. c #FAD0DE",
"G. c #FAD1DF",
"H. c #FCE0C2",
"J. c #FCE6DF",
"K. c #FAD2E0",
"L. c #FAD3E1",
"P. c #FBD5E2",
"I. c #FBD7E3",
"U. c #FBD9E4",
"Y. c #FBDBE6",
"T. c #FBDDE7",
"R. c #FBDDE8",
"E. c #FBDEE8",
"W. c #FCDFE9",
"Q. c #FBE0E9",
"!. c #FCE0E9",
"~. c #FCE1EA",
"^. c #FCE2EA",
"/. c #FCE2EB",
"(. c #FCE3EB",
"). c #FCE3EC",
"_. c #FCE4EC",
"`. c #F7ECF0",
/* pixels */
"                            1 1 1 1                             ",
"                        1 1 c :.:.c 1                           ",
"                      1 c 4.t.p.p.t.l u                         ",
"                    1 l p.p.p.p.p.p.B u                         ",
"                    u 4.p.p.p.p.p.p.4.u                         ",
"                    u 4.p.p.p.p.p.p.q.c u                       ",
"                    u 4.p.p.p.p.p.p.p.&.u                       ",
"    1 u u u u       1 l 4.p.p.p.p.p.p.&.u                       ",
"    u B :.:.c l l u     l 4.p.p.' I p.&.u                       ",
"1 u B p.p.p.p.p.p.B l     l p.p.[ Q t.c 1     1 u u u u u       ",
"1 B t.p.p.p.p.p.p.p.4.l   u Y ' m.N.4.u   u u c :.:.:.:.:.l     ",
"1 :.p.p.p.p.p.p.p.p.p.# 1 u Q ' N.+.1.O : c 4.t.p.p.p.p.p.q.l , ",
"1 :.p.p.p.p.p.p.p.p.K k.:.9 ~ N.N.| F. .d.p.p.p.p.p.p.p.p.p.:.1 ",
"1 B p.p.p.p.p.p.p.p.& l.c.4.J.N._._.H.c.Y F p.p.p.p.p.p.p.p.:.1 ",
"  u &.p.p.p.p.p.p.p.p.p.U._._._._._./ U.W p.p.p.p.p.p.p.p.p.:.1 ",
"  , l &.t.p.q.4.t.p.F z.L.E._._._._.N.N.c.d.X.p.p.p.p.p.p.q.l 1 ",
"    1 u B &.l ; + N.N.L._._._._._._._.F.F.} # p.p.p.p.p.4.&.u   ",
"      , 1 1     X :.m.N.L._._._._._.N.p.d.2.p.p.p.p.p.4.l u ,   ",
"              u c E F.L.U._._.U._._._._.. $ :.:.:.:.:.l 1 1     ",
"            u c % ' c.o.^ _._.N._._.N._.`.    1 1 1 1 1         ",
"          u c p.p.p.p.N.U.U.N.N.L.N.' N.@.- ,                   ",
"        1 c q.p.p.p.F j.N.N.N.N.E.c.Y p.I ( :.:.c 1             ",
"      1 l p.p.p.p.[ K t.K X.F D o.j.p.p.p.p.p.p.t.c ,           ",
"      1 l p.p.p.p.p.p.p.p.p.N = o * p.p.p.p.p.p.p.:.u           ",
"      u 4.p.p.p.p.p.p.p.p.t.l   0 S p.p.p.p.p.p.p.4.l           ",
"      u 4.p.p.p.p.p.p.p.p.&.u   u :.p.p.p.p.p.p.p.p.B 1         ",
"      1 c p.p.p.p.p.p.t.&.l 1     &.p.p.p.p.p.p.p.p.B 1         ",
"      1 l p.p.p.p.p.p.&.u 1       1 :.p.p.p.p.p.p.p.B 1         ",
"        1 l c q.q.c l u 1           u :.p.p.p.p.p.<.l           ",
"            1 u u 1                   1 &.:.:.:.:.l 1           ",
"                                        1 1 1 1 1 1             "
};
