/* XPM */
static char *short_hair_girl_32[] = {
/* columns rows colors chars-per-pixel */
"24 32 250 2 ",
"   c None",
".  c #352D28",
"X  c #342E2B",
"o  c #7C4103",
"O  c #7C4202",
"+  c #7D4203",
"@  c #784106",
"#  c #794106",
"$  c #7C4407",
"%  c #7D4407",
"&  c #7D4507",
"*  c #75420D",
"=  c #7B4208",
"-  c #6C4316",
";  c #784610",
":  c #7B4810",
">  c #7E4A10",
",  c #7F4A10",
"<  c #7E4A11",
"1  c #7F4A11",
"2  c #7F4D15",
"3  c #7D4F1C",
"4  c #7C4F1D",
"5  c #7D4F1D",
"6  c #534A31",
"7  c #7D5220",
"8  c #7A5425",
"9  c #354F52",
"0  c #304958",
"q  c #30565F",
"w  c #054275",
"e  c #014378",
"r  c #024378",
"t  c #05467C",
"y  c #06467C",
"u  c #114879",
"i  c #13497B",
"p  c #104A7C",
"a  c #254560",
"s  c #365577",
"d  c #355478",
"f  c #365478",
"g  c #3B697C",
"h  c #45484A",
"j  c #4F5445",
"k  c #40524D",
"l  c #535D4F",
"z  c #765B48",
"x  c #566155",
"c  c #405B7A",
"v  c #804F19",
"b  c #844E19",
"n  c #854F19",
"m  c #844F1A",
"M  c #805019",
"N  c #80501A",
"B  c #80511A",
"V  c #81511A",
"C  c #80501B",
"Z  c #81501B",
"A  c #80511B",
"S  c #81511B",
"D  c #84501A",
"F  c #85501B",
"G  c #86501B",
"H  c #80511C",
"J  c #84541D",
"K  c #87551D",
"L  c #824F20",
"P  c #835120",
"I  c #845221",
"U  c #8A5922",
"Y  c #8B5A22",
"T  c #8C5A22",
"R  c #8B5925",
"E  c #8D5A26",
"W  c #8D5C27",
"Q  c #88582B",
"!  c #905B26",
"~  c #945D2A",
"^  c #975F2D",
"/  c #8A5B30",
"(  c #966227",
")  c #966128",
"_  c #986329",
"`  c #9C662B",
"'  c #A06734",
"]  c #A26735",
"[  c #A26C33",
"{  c #A46D31",
"}  c #A56D31",
"|  c #A46D32",
" . c #AA6D3D",
".. c #A87033",
"X. c #AA7334",
"o. c #A77338",
"O. c #B37938",
"+. c #B37839",
"@. c #B27A3D",
"#. c #8C6B51",
"$. c #9A6752",
"%. c #996853",
"&. c #AE7142",
"*. c #AB7941",
"=. c #AA7942",
"-. c #B67F43",
";. c #B37F46",
":. c #B57F44",
">. c #B67F44",
",. c #EB6876",
"<. c #EB6877",
"1. c #ED7A79",
"2. c #B68045",
"3. c #B78045",
"4. c #B58248",
"5. c #B5824A",
"6. c #B3834F",
"7. c #B6824F",
"8. c #B88753",
"9. c #BB8756",
"0. c #B88262",
"q. c #D6895F",
"w. c #C38A67",
"e. c #DC8C63",
"r. c #CF996E",
"t. c #D79163",
"y. c #D89A66",
"u. c #D0986E",
"i. c #DF9F6B",
"p. c #D59C71",
"a. c #E4926A",
"s. c #E4956F",
"d. c #E59B6E",
"f. c #EE837A",
"g. c #F08E7B",
"h. c #E59C74",
"j. c #F39B75",
"k. c #F19A77",
"l. c #F39B76",
"z. c #F39A77",
"x. c #F39B77",
"c. c #F39F76",
"v. c #F1967B",
"b. c #F39D78",
"n. c #F39F78",
"m. c #F09D7B",
"M. c #F09E7A",
"N. c #F19E7B",
"B. c #F19F7B",
"V. c #F49F78",
"C. c #F39B7D",
"Z. c #F19F7C",
"A. c #DCA275",
"S. c #E6A672",
"D. c #E0A577",
"F. c #E5A476",
"G. c #EFA37A",
"H. c #E6A978",
"J. c #E7A978",
"K. c #EFA978",
"L. c #EAAD7E",
"P. c #F4A379",
"I. c #F5A379",
"U. c #F4A679",
"Y. c #F5A57B",
"T. c #F3A67E",
"R. c #F4A77C",
"E. c #F4A57F",
"W. c #F5A87A",
"Q. c #F5AA7C",
"!. c #F5A87E",
"~. c #F4AA7E",
"^. c #F0AF7D",
"/. c #F5AC7C",
"(. c #F3B07D",
"). c #F7B27D",
"_. c #F4B17F",
"`. c #F6B27F",
"'. c #F7B27F",
"]. c #F6B37F",
"[. c #F7B37F",
"{. c #015882",
"}. c #005982",
"|. c #015982",
" X c #015883",
".X c #005983",
"XX c #015983",
"oX c #025883",
"OX c #0F5E85",
"+X c #0F5F85",
"@X c #105F85",
"#X c #105F86",
"$X c #115F86",
"%X c #315D84",
"&X c #325D86",
"*X c #0E6E9C",
"=X c #1171A1",
"-X c #1274A3",
";X c #1274A4",
":X c #1275A4",
">X c #1878A6",
",X c #1E7AA6",
"<X c #1679AA",
"1X c #2176A0",
"2X c #3986A7",
"3X c #3A86A7",
"4X c #2486B3",
"5X c #2788B6",
"6X c #368EB9",
"7X c #4289A8",
"8X c #4AB1E3",
"9X c #56B6E5",
"0X c #51BDF0",
"qX c #52BDF2",
"wX c #51BEF2",
"eX c #52BEF2",
"rX c #6FBFE4",
"tX c #5FC3F3",
"yX c #6FC0E4",
"uX c #70C0E4",
"iX c #60C3F3",
"pX c #60C3F4",
"aX c #60C4F4",
"sX c #7DCEF3",
"dX c #7CCEF4",
"fX c #7DCEF4",
"gX c #7DCEF5",
"hX c #7ECEF4",
"jX c #EFA380",
"kX c #EFA183",
"lX c #E1A388",
"zX c #E3AF8D",
"xX c #F2A483",
"cX c #F4B281",
"vX c #F5B281",
"bX c #F4B381",
"nX c #F6B280",
"mX c #F6B380",
"MX c #F7B380",
"NX c #F5B282",
"BX c #F5B382",
"VX c #F3B586",
"CX c #F4B686",
"ZX c #F4B687",
"AX c #F2B688",
"SX c #F4B889",
"DX c #E4B790",
"FX c #E4B791",
"GX c #F1BA91",
"HX c #D3BBA2",
/* pixels */
"                            >X                  ",
"                          1X=Xg                 ",
"              O.` A A 7 <X*XXX6 @               ",
"          5.o.) Y A A 7 x l j k 9 &X&X          ",
"          5...A A A A A A A A q XXw u           ",
"      5.O.Y A A A A A A A A A 0 w - * @ Q       ",
"      *...A A A A A A A A A A h a ; @ @ I       ",
"    O.) A A A A A A A A A A A A A A > @ @ @     ",
"9.*.) Y A A A A A A A A A A A A A A n > > > I / ",
"-.} A A A A A A A A A A A A A A A A A A n A @ n ",
"2.} A 9.J.J.J.H.J.J.J.J.J.J.J.J.H.J.D.a.&.A @ n ",
"2.} A 5.i.].^.r.D.mX].].].].].A.u.].^.e. .A @ A ",
"2.} A A A D.p.X #.mX].].].].mXz X L.y.A A A @ n ",
"-.} A A A d.h.%.w.].].].].].].0.%.G.t.A A A @ n ",
"-.} A A A a.x.x.P.].].].].].].P.x.x.q.A A A % n ",
"2.} A A A ! ] x.P.].].mXmX].].P.x.^ Y A > @ @ A ",
"-.} 5 5 5 Y ] V.^.].^.P.P.^.mXP.V.~ Y 5 ; @ @ L ",
"          SX].].mX].1.,.,.f.].].].V.xX          ",
"          GXmX].].].v.g.g.V.mX^.P.jX            ",
"              ].].].].].].].].P.x.              ",
"                mX].].].].^.x.                  ",
"                HXFXFXFXFXzXlX                  ",
"              dXdXdXdXdXdXdXdXtX0X              ",
"            6XdXdXdXdXdXdXdXdXaX0Xu             ",
"      mXmX2X5XdXdXdXdXdXdXdXdXaX0Xy s x.V.      ",
"      mXmX3X5XdXdXdXdXdXdXdXdXaX0Xy d x.V.      ",
"      mXmX2X4XuXuXyXyXrXyXyXyX9X8Xy d x.V.      ",
"      mXmX2X=XXXXXXXXXXXXXXXXXXXXXy d x.V.      ",
"      mXmX2X=XXXXXXXXXXXXXXXXXXXXXy s x.V.      ",
"      mXmX2X=XXXXXXXXXXXXXXXXXXXXXy s x.V.      ",
"      mXmX2X=XXXXXXXXXXXXXXXXXXXXXy s x.V.      ",
"      AXmX7X>X#X#X+X#X#X#X+X+X+X#Xu c V.jX      "
};
