/* XPM */
static char *sunflower32[] = {
/* columns rows colors chars-per-pixel */
"32 26 182 2 ",
"   c None",
".  c #6F4922",
"X  c #704A22",
"o  c #734E23",
"O  c #744D24",
"+  c #784F25",
"@  c #794F25",
"#  c #785124",
"$  c #7A5025",
"%  c #7B5126",
"&  c #7C5924",
"*  c #805A26",
"=  c #825B27",
"-  c #8F6E28",
";  c #9A7B28",
":  c #9D7F28",
">  c #A47B27",
",  c #A47F2A",
"<  c #A08129",
"1  c #A38129",
"2  c #A48029",
"3  c #A5852D",
"4  c #A98B2D",
"5  c #AF902A",
"6  c #AE922E",
"7  c #B3972E",
"8  c #C2AC2E",
"9  c #C9B731",
"0  c #CAB630",
"q  c #E4BC26",
"w  c #E0BF28",
"e  c #E0CB2A",
"r  c #FFDA24",
"t  c #FFDC25",
"y  c #FFDD26",
"u  c #FFDE26",
"i  c #FFDF27",
"p  c #FFD72C",
"a  c #FFD72D",
"s  c #FFD72E",
"d  c #F5D829",
"f  c #F1DB2D",
"g  c #FFD928",
"h  c #FFD829",
"j  c #FFD82B",
"k  c #FFDD2B",
"l  c #E0D534",
"z  c #FFD631",
"x  c #FFD534",
"c  c #FFD537",
"v  c #FFD930",
"b  c #FFDB33",
"n  c #FFDE33",
"m  c #FFDB37",
"M  c #FFD339",
"N  c #FFD23B",
"B  c #FFD33B",
"V  c #FFD43A",
"C  c #FFD63B",
"Z  c #FFD43D",
"A  c #FFD83C",
"S  c #FFD93C",
"D  c #FFDA3C",
"F  c #FFDF3C",
"G  c #FFE027",
"H  c #FFE128",
"J  c #FFE429",
"K  c #FFE42A",
"L  c #FFE52A",
"P  c #FFE62A",
"I  c #FFE62B",
"U  c #FFE72B",
"Y  c #FFE02E",
"T  c #FFE02F",
"R  c #F8E62F",
"E  c #F9E62F",
"W  c #FFE72C",
"Q  c #FFE42E",
"!  c #FFE72E",
"~  c #FFE82B",
"^  c #FFE82C",
"/  c #FFE92C",
"(  c #FFEA2D",
")  c #FFEB2D",
"_  c #F9EE2C",
"`  c #FFEC2E",
"'  c #FFED2E",
"]  c #FFEF2F",
"[  c #FFF226",
"{  c #FFF227",
"}  c #FFF42A",
"|  c #FFF52A",
" . c #FFF52B",
".. c #FFF62B",
"X. c #FFF12E",
"o. c #FFF62C",
"O. c #FFF62D",
"+. c #FFF72D",
"@. c #FFF42F",
"#. c #FFF62E",
"$. c #FFF72E",
"%. c #FFF82E",
"&. c #FFF82F",
"*. c #FFF92F",
"=. c #EEE234",
"-. c #EEE636",
";. c #EEE736",
":. c #FFE131",
">. c #FFE230",
",. c #FFE236",
"<. c #FFE735",
"1. c #F6EC34",
"2. c #FBEB30",
"3. c #FFE934",
"4. c #FFEB35",
"5. c #FFE837",
"6. c #FFED36",
"7. c #FFEF36",
"8. c #FFE239",
"9. c #FFE03B",
"0. c #FFE639",
"q. c #FFE739",
"w. c #FFE43B",
"e. c #FFE63B",
"r. c #FFE839",
"t. c #FFE83A",
"y. c #FFE83B",
"u. c #FFEB3A",
"i. c #FFEC38",
"p. c #FFEC3A",
"a. c #FFEE3A",
"s. c #F5F137",
"d. c #F7F236",
"f. c #F7F337",
"g. c #FFF030",
"h. c #FFF130",
"j. c #FFF131",
"k. c #FFF231",
"l. c #FFF331",
"z. c #FFF432",
"x. c #FFF533",
"c. c #FFF633",
"v. c #FFF135",
"b. c #FFF335",
"n. c #FFF535",
"m. c #FFF734",
"M. c #FFF436",
"N. c #FFF930",
"B. c #FFF931",
"V. c #FFFA31",
"C. c #FFFA32",
"Z. c #FFFB32",
"A. c #FFFA33",
"S. c #FFFB33",
"D. c #FFFC33",
"F. c #FFF834",
"G. c #FFF934",
"H. c #FFF935",
"J. c #FFFA35",
"K. c #FFF837",
"L. c #FFFB36",
"P. c #FFFC34",
"I. c #FFFC35",
"U. c #FFFD35",
"Y. c #FFFC36",
"T. c #FFFD36",
"R. c #FFFC37",
"E. c #FFFD37",
"W. c #FFFE36",
"Q. c #FFFE37",
"!. c #FFFF37",
"~. c #FFF039",
"^. c #FFF139",
"/. c #FFF238",
"(. c #FFF239",
"). c #FFF03A",
"_. c #FFF538",
"`. c #FFF539",
"'. c #FFF639",
"]. c #FFFB38",
"[. c #FFFE38",
"{. c #FFFF38",
/* pixels */
"                              a                                 ",
"                            ^ M I                               ",
"                          ^ `.m m.                              ",
"                          m.`.:.4.4.          a j               ",
"            ^ ^ ^       I E.{.@.&.E.    ^ m.:.F j               ",
"        j M 9.u.E.E.m.  I {.{.&.&.E.  I E.{.`.u.                ",
"          4.`.4.@.@.E.E.I E.{.&.&.E.r E.E.@.E.^                 ",
"          ^ E.`.m.@.E.E.m.I {.{.&.m.E.E.E.E.{.^                 ",
"            I m.E.E.E.{.{.f =.=.=.I {.E.E.E.m.                  ",
"                I ^ E.l 4 = @ @ @ - 7 f.m.^ ^ I I I             ",
"        ^ m.m.m.^ I w & . . . . . . . : 1.{.{.{.{.{.E.m.^       ",
"    ^ E.@.@.&.&.&.f.= . . . . . . . . . 5 E.@.&.@.@.@.E.E.^     ",
"  :.F 9.@.&.&.E.{.f.% . . . . . . . . . < {.E.E.E.E.E.`.u.F z   ",
"r M M m.E.E.E.E.m.f % . . . . . . . . . > ^ m.E.E.{.`.u.m z z   ",
"      I ^ ^   r G 4.: . . . . . . . . O 9 E.^ r I ^ I           ",
"            I m.E.@.^ < O . . . . O % 0 E.E.E.E.^               ",
"        r m.E.E.{ &.E.I e 5 , < < 8 q ^ E.@.E.E.m.              ",
"        m.{.{.&.&.E.m.@.@.E.^ @.&.E.I r m.E.{ E.E.              ",
"      I `.{.E.E.{.E.I E.@.m.m.E.{ E.m.  I E.@.m.{.I             ",
"      z F 9.{.E.E.I m.E.@.m.E.{.@.E.E.I   ^ E.:.u.^             ",
"      M m ^ ^     r E.&.E.m.^ {.E.&.{.^     9.9.u.I             ",
"                    E.E.E.m.I E.E.4.E.^         I               ",
"                    m.E.E.m.  m.m.u.m.                          ",
"                    m.u.E.I   ^ 9.9.4.                          ",
"                    j M 4.      I m m                           ",
"                      a                                         "
};
